<svg width="24" height="24" viewBox="0 0 24 24" fill="none" xmlns="http://www.w3.org/2000/svg">
<g clip-path="url(#clip0_413_397)">
<path d="M4 3H20C20.2652 3 20.5196 3.10536 20.7071 3.29289C20.8946 3.48043 21 3.73478 21 4V20C21 20.2652 20.8946 20.5196 20.7071 20.7071C20.5196 20.8946 20.2652 21 20 21H4C3.73478 21 3.48043 20.8946 3.29289 20.7071C3.10536 20.5196 3 20.2652 3 20V4C3 3.73478 3.10536 3.48043 3.29289 3.29289C3.48043 3.10536 3.73478 3 4 3ZM5 5V19H19V5H5Z" fill="#214D2F" style="fill:#214D2F;fill:color(display-p3 0.1294 0.3020 0.1843);fill-opacity:1;"/>
</g>
<defs>
<clipPath id="clip0_413_397">
<rect width="24" height="24" fill="white" style="fill:white;fill-opacity:1;"/>
</clipPath>
</defs>
</svg>
