<svg width="152" height="42" viewBox="0 0 152 42" fill="none" xmlns="http://www.w3.org/2000/svg">
<path d="M10.5828 5.088L10.2228 7.056H15.4548L14.6628 11.568H9.45478L8.42278 17.424H2.97478L5.97478 0.432H16.9188L16.1028 5.088H10.5828Z" fill="#214D2F" style="fill:#214D2F;fill:color(display-p3 0.1294 0.3020 0.1843);fill-opacity:1;"/>
<path d="M26.8388 17.856C25.4788 17.856 24.2708 17.672 23.2148 17.304C22.1748 16.92 21.2948 16.384 20.5748 15.696C19.8708 15.008 19.3348 14.192 18.9668 13.248C18.5988 12.304 18.4148 11.264 18.4148 10.128C18.4148 8.72 18.6628 7.4 19.1588 6.168C19.6548 4.936 20.3508 3.864 21.2468 2.952C22.1428 2.04 23.2228 1.32 24.4868 0.792C25.7668 0.264 27.1828 0 28.7348 0C30.1108 0 31.3188 0.192 32.3588 0.576C33.4148 0.944 34.2948 1.472 34.9988 2.16C35.7188 2.848 36.2628 3.664 36.6308 4.608C36.9988 5.552 37.1828 6.592 37.1828 7.728C37.1828 9.136 36.9348 10.456 36.4388 11.688C35.9588 12.92 35.2628 13.992 34.3508 14.904C33.4548 15.816 32.3668 16.536 31.0868 17.064C29.8228 17.592 28.4068 17.856 26.8388 17.856ZM31.3988 8.136C31.3988 7.704 31.3268 7.304 31.1828 6.936C31.0548 6.552 30.8548 6.224 30.5828 5.952C30.3268 5.664 29.9988 5.44 29.5988 5.28C29.2148 5.12 28.7748 5.04 28.2788 5.04C27.6548 5.04 27.0868 5.176 26.5748 5.448C26.0788 5.704 25.6548 6.048 25.3028 6.48C24.9508 6.912 24.6788 7.408 24.4868 7.968C24.2948 8.528 24.1988 9.096 24.1988 9.672C24.1988 10.104 24.2628 10.512 24.3908 10.896C24.5348 11.264 24.7348 11.592 24.9908 11.88C25.2628 12.152 25.5908 12.368 25.9748 12.528C26.3748 12.688 26.8308 12.768 27.3428 12.768C27.9668 12.768 28.5268 12.64 29.0228 12.384C29.5188 12.128 29.9428 11.784 30.2948 11.352C30.6468 10.92 30.9188 10.424 31.1108 9.864C31.3028 9.304 31.3988 8.728 31.3988 8.136Z" fill="#214D2F" style="fill:#214D2F;fill:color(display-p3 0.1294 0.3020 0.1843);fill-opacity:1;"/>
<path d="M48.439 17.424L46.111 11.208H45.439L44.383 17.424H39.031L42.031 0.432H49.015C49.943 0.432 50.783 0.536 51.535 0.743999C52.287 0.951999 52.927 1.256 53.455 1.656C53.983 2.056 54.383 2.552 54.655 3.144C54.943 3.72 55.087 4.384 55.087 5.136C55.087 6.544 54.751 7.704 54.079 8.616C53.423 9.528 52.519 10.152 51.367 10.488L54.679 17.424H48.439ZM47.215 7.68C47.951 7.68 48.527 7.56 48.943 7.32C49.359 7.064 49.567 6.664 49.567 6.12C49.567 5.624 49.391 5.288 49.039 5.112C48.703 4.92 48.239 4.824 47.647 4.824H46.615L46.111 7.68H47.215Z" fill="#214D2F" style="fill:#214D2F;fill:color(display-p3 0.1294 0.3020 0.1843);fill-opacity:1;"/>
<path d="M57.1295 17.424L60.1295 0.432H71.2415L70.4255 5.064H64.5455L64.2575 6.696H69.8735L69.1055 11.016H63.4895L63.1775 12.792H69.7535L68.9375 17.424H57.1295Z" fill="#214D2F" style="fill:#214D2F;fill:color(display-p3 0.1294 0.3020 0.1843);fill-opacity:1;"/>
<path d="M87.3406 5.088L86.9806 7.056H92.2126L91.4206 11.568H86.2126L85.1806 17.424H79.7326L82.7326 0.432H93.6766L92.8606 5.088H87.3406Z" fill="#214D2F" style="fill:#214D2F;fill:color(display-p3 0.1294 0.3020 0.1843);fill-opacity:1;"/>
<path d="M103.597 17.856C102.237 17.856 101.029 17.672 99.9727 17.304C98.9327 16.92 98.0527 16.384 97.3327 15.696C96.6287 15.008 96.0927 14.192 95.7247 13.248C95.3567 12.304 95.1727 11.264 95.1727 10.128C95.1727 8.72 95.4207 7.4 95.9167 6.168C96.4127 4.936 97.1087 3.864 98.0047 2.952C98.9007 2.04 99.9807 1.32 101.245 0.792C102.525 0.264 103.941 0 105.493 0C106.869 0 108.077 0.192 109.117 0.576C110.173 0.944 111.053 1.472 111.757 2.16C112.477 2.848 113.021 3.664 113.389 4.608C113.757 5.552 113.941 6.592 113.941 7.728C113.941 9.136 113.693 10.456 113.197 11.688C112.717 12.92 112.021 13.992 111.109 14.904C110.213 15.816 109.125 16.536 107.845 17.064C106.581 17.592 105.165 17.856 103.597 17.856ZM108.157 8.136C108.157 7.704 108.085 7.304 107.941 6.936C107.813 6.552 107.613 6.224 107.341 5.952C107.085 5.664 106.757 5.44 106.357 5.28C105.973 5.12 105.533 5.04 105.037 5.04C104.413 5.04 103.845 5.176 103.333 5.448C102.837 5.704 102.413 6.048 102.061 6.48C101.709 6.912 101.437 7.408 101.245 7.968C101.053 8.528 100.957 9.096 100.957 9.672C100.957 10.104 101.021 10.512 101.149 10.896C101.293 11.264 101.493 11.592 101.749 11.88C102.021 12.152 102.349 12.368 102.733 12.528C103.133 12.688 103.589 12.768 104.101 12.768C104.725 12.768 105.285 12.64 105.781 12.384C106.277 12.128 106.701 11.784 107.053 11.352C107.405 10.92 107.677 10.424 107.869 9.864C108.061 9.304 108.157 8.728 108.157 8.136Z" fill="#214D2F" style="fill:#214D2F;fill:color(display-p3 0.1294 0.3020 0.1843);fill-opacity:1;"/>
<path d="M125.197 17.424L122.869 11.208H122.197L121.141 17.424H115.789L118.789 0.432H125.773C126.701 0.432 127.541 0.536 128.293 0.743999C129.045 0.951999 129.685 1.256 130.213 1.656C130.741 2.056 131.141 2.552 131.413 3.144C131.701 3.72 131.845 4.384 131.845 5.136C131.845 6.544 131.509 7.704 130.837 8.616C130.181 9.528 129.277 10.152 128.125 10.488L131.437 17.424H125.197ZM123.973 7.68C124.709 7.68 125.285 7.56 125.701 7.32C126.117 7.064 126.325 6.664 126.325 6.12C126.325 5.624 126.149 5.288 125.797 5.112C125.461 4.92 124.997 4.824 124.405 4.824H123.373L122.869 7.68H123.973Z" fill="#214D2F" style="fill:#214D2F;fill:color(display-p3 0.1294 0.3020 0.1843);fill-opacity:1;"/>
<path d="M133.887 17.424L136.887 0.432H147.999L147.183 5.064H141.303L141.015 6.696H146.631L145.863 11.016H140.247L139.935 12.792H146.511L145.695 17.424H133.887Z" fill="#214D2F" style="fill:#214D2F;fill:color(display-p3 0.1294 0.3020 0.1843);fill-opacity:1;"/>
<path d="M14.976 39.48C14.64 39.768 14.248 40.064 13.8 40.368C13.368 40.656 12.872 40.912 12.312 41.136C11.752 41.36 11.12 41.544 10.416 41.688C9.728 41.832 8.96 41.904 8.112 41.904C6.832 41.904 5.688 41.728 4.68 41.376C3.688 41.024 2.84 40.52 2.136 39.864C1.448 39.208 0.92 38.416 0.552 37.488C0.184 36.56 0 35.528 0 34.392C0 32.936 0.248 31.576 0.744 30.312C1.256 29.048 1.968 27.944 2.88 27C3.792 26.056 4.872 25.312 6.12 24.768C7.368 24.224 8.736 23.952 10.224 23.952C11.696 23.952 12.992 24.184 14.112 24.648C15.232 25.096 16.088 25.656 16.68 26.328L12.816 30.312C12.528 29.896 12.144 29.592 11.664 29.4C11.2 29.192 10.672 29.088 10.08 29.088C9.472 29.088 8.92 29.216 8.424 29.472C7.928 29.712 7.504 30.048 7.152 30.48C6.8 30.896 6.528 31.384 6.336 31.944C6.144 32.504 6.048 33.104 6.048 33.744C6.048 34.576 6.304 35.28 6.816 35.856C7.344 36.432 8.128 36.72 9.168 36.72C9.776 36.72 10.344 36.592 10.872 36.336C11.4 36.08 11.856 35.768 12.24 35.4L14.976 39.48Z" fill="#214D2F" style="fill:#214D2F;fill:color(display-p3 0.1294 0.3020 0.1843);fill-opacity:1;"/>
<path d="M28.1479 41.424L27.7639 38.832H22.2439L20.8279 41.424H14.6359L25.0759 24.432H30.9319L33.9079 41.424H28.1479ZM26.8039 30.216L24.3799 34.584H27.3079L26.8039 30.216Z" fill="#214D2F" style="fill:#214D2F;fill:color(display-p3 0.1294 0.3020 0.1843);fill-opacity:1;"/>
<path d="M47.0213 41.424L43.3013 34.272H43.2533L42.0053 41.424H36.6053L39.6053 24.432H44.9813L43.8293 30.936H43.9013L49.2773 24.432H56.0453L48.4132 32.64L53.6693 41.424H47.0213Z" fill="#214D2F" style="fill:#214D2F;fill:color(display-p3 0.1294 0.3020 0.1843);fill-opacity:1;"/>
<path d="M55.5709 41.424L58.5709 24.432H69.6829L68.8669 29.064H62.9869L62.6989 30.696H68.3149L67.5469 35.016H61.9309L61.6189 36.792H68.1949L67.3789 41.424H55.5709Z" fill="#214D2F" style="fill:#214D2F;fill:color(display-p3 0.1294 0.3020 0.1843);fill-opacity:1;"/>
<path d="M89.358 29.496C89.086 29.176 88.734 28.92 88.302 28.728C87.87 28.52 87.366 28.416 86.79 28.416C86.342 28.416 85.934 28.512 85.566 28.704C85.214 28.896 85.038 29.192 85.038 29.592C85.038 29.912 85.19 30.16 85.494 30.336C85.798 30.512 86.246 30.696 86.838 30.888C87.574 31.128 88.23 31.4 88.806 31.704C89.382 32.008 89.87 32.36 90.27 32.76C90.67 33.16 90.974 33.616 91.182 34.128C91.406 34.64 91.518 35.216 91.518 35.856C91.518 36.944 91.278 37.872 90.798 38.64C90.318 39.408 89.702 40.032 88.95 40.512C88.214 40.992 87.398 41.344 86.502 41.568C85.606 41.792 84.734 41.904 83.886 41.904C83.214 41.904 82.542 41.848 81.87 41.736C81.198 41.624 80.55 41.464 79.926 41.256C79.318 41.048 78.742 40.792 78.198 40.488C77.654 40.184 77.182 39.84 76.782 39.456L80.574 35.952C80.766 36.176 80.998 36.376 81.27 36.552C81.542 36.728 81.822 36.88 82.11 37.008C82.414 37.12 82.718 37.216 83.022 37.296C83.326 37.36 83.606 37.392 83.862 37.392C84.422 37.392 84.87 37.304 85.206 37.128C85.542 36.936 85.71 36.664 85.71 36.312C85.71 36.024 85.566 35.768 85.278 35.544C85.006 35.32 84.486 35.088 83.718 34.848C83.11 34.656 82.534 34.432 81.99 34.176C81.462 33.92 80.998 33.616 80.598 33.264C80.214 32.896 79.91 32.464 79.686 31.968C79.462 31.456 79.35 30.84 79.35 30.12C79.35 29.24 79.526 28.424 79.878 27.672C80.246 26.92 80.758 26.272 81.414 25.728C82.086 25.168 82.878 24.736 83.79 24.432C84.718 24.112 85.734 23.952 86.838 23.952C87.446 23.952 88.046 24.008 88.638 24.12C89.23 24.216 89.79 24.36 90.318 24.552C90.846 24.728 91.334 24.944 91.782 25.2C92.23 25.456 92.606 25.744 92.91 26.064L89.358 29.496Z" fill="#214D2F" style="fill:#214D2F;fill:color(display-p3 0.1294 0.3020 0.1843);fill-opacity:1;"/>
<path d="M104.18 41.424L105.332 34.896H100.484L99.3321 41.424H93.7881L96.7881 24.432H102.308L101.276 30.264H106.124L107.156 24.432H112.724L109.724 41.424H104.18Z" fill="#214D2F" style="fill:#214D2F;fill:color(display-p3 0.1294 0.3020 0.1843);fill-opacity:1;"/>
<path d="M123.137 41.856C121.777 41.856 120.569 41.672 119.513 41.304C118.473 40.92 117.593 40.384 116.873 39.696C116.169 39.008 115.633 38.192 115.265 37.248C114.897 36.304 114.713 35.264 114.713 34.128C114.713 32.72 114.961 31.4 115.457 30.168C115.953 28.936 116.648 27.864 117.545 26.952C118.441 26.04 119.521 25.32 120.785 24.792C122.064 24.264 123.48 24 125.033 24C126.409 24 127.617 24.192 128.657 24.576C129.713 24.944 130.593 25.472 131.297 26.16C132.017 26.848 132.561 27.664 132.928 28.608C133.296 29.552 133.48 30.592 133.48 31.728C133.48 33.136 133.232 34.456 132.736 35.688C132.257 36.92 131.561 37.992 130.648 38.904C129.753 39.816 128.665 40.536 127.384 41.064C126.12 41.592 124.705 41.856 123.137 41.856ZM127.697 32.136C127.697 31.704 127.624 31.304 127.48 30.936C127.353 30.552 127.152 30.224 126.881 29.952C126.624 29.664 126.297 29.44 125.896 29.28C125.512 29.12 125.073 29.04 124.576 29.04C123.952 29.04 123.385 29.176 122.873 29.448C122.377 29.704 121.952 30.048 121.601 30.48C121.249 30.912 120.977 31.408 120.785 31.968C120.592 32.528 120.496 33.096 120.496 33.672C120.496 34.104 120.561 34.512 120.688 34.896C120.832 35.264 121.033 35.592 121.288 35.88C121.561 36.152 121.888 36.368 122.272 36.528C122.673 36.688 123.129 36.768 123.641 36.768C124.265 36.768 124.825 36.64 125.321 36.384C125.817 36.128 126.241 35.784 126.592 35.352C126.944 34.92 127.216 34.424 127.409 33.864C127.601 33.304 127.697 32.728 127.697 32.136Z" fill="#214D2F" style="fill:#214D2F;fill:color(display-p3 0.1294 0.3020 0.1843);fill-opacity:1;"/>
<path d="M140.849 41.424H135.329L138.329 24.432H144.665C146.857 24.432 148.529 24.888 149.681 25.8C150.849 26.712 151.433 27.968 151.433 29.568C151.433 30.656 151.249 31.6 150.881 32.4C150.529 33.2 150.009 33.856 149.321 34.368C148.633 34.88 147.801 35.264 146.825 35.52C145.849 35.76 144.737 35.88 143.489 35.88H141.857L140.849 41.424ZM143.465 31.704C144.233 31.704 144.833 31.576 145.265 31.32C145.697 31.064 145.913 30.664 145.913 30.12C145.913 29.608 145.737 29.256 145.385 29.064C145.033 28.872 144.553 28.776 143.945 28.776H143.105L142.577 31.704H143.465Z" fill="#214D2F" style="fill:#214D2F;fill:color(display-p3 0.1294 0.3020 0.1843);fill-opacity:1;"/>
</svg>
